<svg xmlns="http://www.w3.org/2000/svg" viewBox="0 0 500 500" width="100%" height="auto" style="background:#fff; border-radius:8px;">
  <rect width="500" height="500" fill="#ffffff"/>
  <!-- Black Squares -->
  <g fill="#1a1712">
    <rect x="20" y="20" width="90" height="90"/>
    <rect x="140" y="20" width="90" height="90"/>
    <rect x="260" y="20" width="90" height="90"/>
    <rect x="380" y="20" width="90" height="90"/>
    <rect x="20" y="140" width="90" height="90"/>
    <rect x="140" y="140" width="90" height="90"/>
    <rect x="260" y="140" width="90" height="90"/>
    <rect x="380" y="140" width="90" height="90"/>
    <rect x="20" y="260" width="90" height="90"/>
    <rect x="140" y="260" width="90" height="90"/>
    <rect x="260" y="260" width="90" height="90"/>
    <rect x="380" y="260" width="90" height="90"/>
    <rect x="20" y="380" width="90" height="90"/>
    <rect x="140" y="380" width="90" height="90"/>
    <rect x="260" y="380" width="90" height="90"/>
    <rect x="380" y="380" width="90" height="90"/>
  </g>
</svg>